<mxfile host="app.diagrams.net" modified="2021-09-06T08:13:51.688Z" agent="5.0 (Macintosh; Intel Mac OS X 10_15_7) AppleWebKit/605.1.15 (KHTML, like Gecko) Version/14.1.2 Safari/605.1.15" etag="r_4Trt1EFGHYQCilqYXT" version="14.9.9" type="github">
  <diagram id="6I0OCvxSQrVGMHxT2VVA" name="Page-1">
    <mxGraphModel dx="2066" dy="1090" grid="1" gridSize="10" guides="1" tooltips="1" connect="1" arrows="1" fold="1" page="1" pageScale="1" pageWidth="850" pageHeight="1100" math="0" shadow="0">
      <root>
        <mxCell id="0" />
        <mxCell id="1" parent="0" />
        <mxCell id="7Nxe6CDJm95LbghUJ3Ev-57" value="" style="whiteSpace=wrap;html=1;strokeColor=none;strokeWidth=1;fillColor=#f5f5f5;fontSize=14;" vertex="1" parent="1">
          <mxGeometry x="197.5" y="240" width="1075" height="140" as="geometry" />
        </mxCell>
        <mxCell id="7Nxe6CDJm95LbghUJ3Ev-59" value="PlayerFacade" style="html=1;whiteSpace=wrap;fillColor=#b0e3e6;shape=mxgraph.archimate3.application;appType=func;archiType=rounded;fontSize=14;strokeColor=#0e8088;" vertex="1" parent="1">
          <mxGeometry x="284" y="270" width="870" height="80" as="geometry" />
        </mxCell>
        <mxCell id="dKdSaXE48SgPbhcamS2K-30" value="" style="whiteSpace=wrap;html=1;strokeColor=none;strokeWidth=1;fillColor=#f5f5f5;fontSize=14;" parent="1" vertex="1">
          <mxGeometry x="194" y="591" width="1075" height="179" as="geometry" />
        </mxCell>
        <mxCell id="dKdSaXE48SgPbhcamS2K-31" value="" style="whiteSpace=wrap;html=1;strokeColor=none;strokeWidth=1;fillColor=#f5f5f5;fontSize=14;" parent="1" vertex="1">
          <mxGeometry x="194" y="411" width="1075" height="160" as="geometry" />
        </mxCell>
        <mxCell id="dKdSaXE48SgPbhcamS2K-46" style="edgeStyle=elbowEdgeStyle;rounded=1;elbow=vertical;html=1;startSize=10;endArrow=open;endFill=0;endSize=10;jettySize=auto;orthogonalLoop=1;strokeColor=#808080;fontSize=14;" parent="1" source="dKdSaXE48SgPbhcamS2K-47" edge="1">
          <mxGeometry relative="1" as="geometry">
            <mxPoint x="421.5" y="346" as="targetPoint" />
          </mxGeometry>
        </mxCell>
        <mxCell id="dKdSaXE48SgPbhcamS2K-47" value="SongPlayer" style="shape=component;align=center;fillColor=#fff2cc;fontSize=14;strokeColor=#d6b656;" parent="1" vertex="1">
          <mxGeometry x="329" y="451" width="185" height="80" as="geometry" />
        </mxCell>
        <mxCell id="dKdSaXE48SgPbhcamS2K-48" style="edgeStyle=elbowEdgeStyle;rounded=1;elbow=vertical;html=1;startSize=10;endArrow=open;endFill=0;endSize=10;jettySize=auto;orthogonalLoop=1;strokeColor=#808080;fontSize=14;" parent="1" source="dKdSaXE48SgPbhcamS2K-49" edge="1">
          <mxGeometry relative="1" as="geometry">
            <mxPoint x="629.5" y="346" as="targetPoint" />
          </mxGeometry>
        </mxCell>
        <mxCell id="dKdSaXE48SgPbhcamS2K-49" value="VocalPlayer" style="shape=component;align=center;fillColor=#fff2cc;fontSize=14;strokeColor=#d6b656;" parent="1" vertex="1">
          <mxGeometry x="537" y="451" width="185" height="80" as="geometry" />
        </mxCell>
        <mxCell id="dKdSaXE48SgPbhcamS2K-50" style="edgeStyle=elbowEdgeStyle;rounded=1;elbow=vertical;html=1;startSize=10;endArrow=open;endFill=0;endSize=10;jettySize=auto;orthogonalLoop=1;strokeColor=#808080;fontSize=14;" parent="1" edge="1">
          <mxGeometry relative="1" as="geometry">
            <mxPoint x="854" y="451" as="sourcePoint" />
            <mxPoint x="854" y="346" as="targetPoint" />
          </mxGeometry>
        </mxCell>
        <mxCell id="dKdSaXE48SgPbhcamS2K-52" style="edgeStyle=elbowEdgeStyle;rounded=1;elbow=vertical;html=1;startSize=10;endArrow=open;endFill=0;endSize=10;jettySize=auto;orthogonalLoop=1;strokeColor=#808080;fontSize=14;" parent="1" source="dKdSaXE48SgPbhcamS2K-53" edge="1">
          <mxGeometry relative="1" as="geometry">
            <mxPoint x="1061.5" y="346" as="targetPoint" />
          </mxGeometry>
        </mxCell>
        <mxCell id="dKdSaXE48SgPbhcamS2K-53" value="CommercialPlayer" style="shape=component;align=center;fillColor=#fff2cc;fontSize=14;strokeColor=#d6b656;" parent="1" vertex="1">
          <mxGeometry x="969" y="451" width="185" height="80" as="geometry" />
        </mxCell>
        <mxCell id="dKdSaXE48SgPbhcamS2K-58" value="Strategy" style="text;html=1;strokeColor=none;fillColor=none;align=center;verticalAlign=middle;whiteSpace=wrap;fontSize=25;" parent="1" vertex="1">
          <mxGeometry x="1280" y="670" width="240" height="20" as="geometry" />
        </mxCell>
        <mxCell id="dKdSaXE48SgPbhcamS2K-59" value="Player" style="text;html=1;strokeColor=none;fillColor=none;align=center;verticalAlign=middle;whiteSpace=wrap;fontSize=25;" parent="1" vertex="1">
          <mxGeometry x="1280" y="460" width="240" height="20" as="geometry" />
        </mxCell>
        <mxCell id="7Nxe6CDJm95LbghUJ3Ev-4" value="" style="endArrow=none;dashed=1;html=1;dashPattern=1 3;strokeWidth=2;" edge="1" parent="1">
          <mxGeometry width="50" height="50" relative="1" as="geometry">
            <mxPoint x="150" y="391" as="sourcePoint" />
            <mxPoint x="1330" y="391" as="targetPoint" />
          </mxGeometry>
        </mxCell>
        <mxCell id="7Nxe6CDJm95LbghUJ3Ev-63" value="&lt;font style=&quot;font-size: 14px&quot;&gt;组合&lt;/font&gt;" style="edgeLabel;html=1;align=center;verticalAlign=middle;resizable=0;points=[];fontSize=25;" vertex="1" connectable="0" parent="7Nxe6CDJm95LbghUJ3Ev-4">
          <mxGeometry x="-0.0322" y="3" relative="1" as="geometry">
            <mxPoint as="offset" />
          </mxGeometry>
        </mxCell>
        <mxCell id="7Nxe6CDJm95LbghUJ3Ev-5" value="" style="endArrow=none;dashed=1;html=1;dashPattern=1 3;strokeWidth=2;startArrow=none;" edge="1" parent="1" source="7Nxe6CDJm95LbghUJ3Ev-64">
          <mxGeometry width="50" height="50" relative="1" as="geometry">
            <mxPoint x="150" y="581" as="sourcePoint" />
            <mxPoint x="1330" y="581" as="targetPoint" />
          </mxGeometry>
        </mxCell>
        <mxCell id="7Nxe6CDJm95LbghUJ3Ev-44" value="" style="whiteSpace=wrap;html=1;strokeColor=none;strokeWidth=1;fillColor=#f5f5f5;fontSize=14;" vertex="1" parent="1">
          <mxGeometry x="194" y="800" width="1075" height="140" as="geometry" />
        </mxCell>
        <mxCell id="7Nxe6CDJm95LbghUJ3Ev-45" value="" style="endArrow=none;dashed=1;html=1;dashPattern=1 3;strokeWidth=2;" edge="1" parent="1">
          <mxGeometry width="50" height="50" relative="1" as="geometry">
            <mxPoint x="151" y="783" as="sourcePoint" />
            <mxPoint x="1331" y="783" as="targetPoint" />
          </mxGeometry>
        </mxCell>
        <mxCell id="7Nxe6CDJm95LbghUJ3Ev-46" value="Playlist" style="text;html=1;strokeColor=none;fillColor=none;align=center;verticalAlign=middle;whiteSpace=wrap;fontSize=25;" vertex="1" parent="1">
          <mxGeometry x="1280" y="850" width="240" height="20" as="geometry" />
        </mxCell>
        <mxCell id="7Nxe6CDJm95LbghUJ3Ev-47" value="播放列表" style="html=1;whiteSpace=wrap;fillColor=#bac8d3;shape=mxgraph.archimate3.application;appType=func;archiType=rounded;fontSize=14;strokeColor=#23445d;" vertex="1" parent="1">
          <mxGeometry x="300" y="830" width="870" height="80" as="geometry" />
        </mxCell>
        <mxCell id="7Nxe6CDJm95LbghUJ3Ev-73" style="edgeStyle=orthogonalEdgeStyle;rounded=0;orthogonalLoop=1;jettySize=auto;html=1;exitX=0.5;exitY=0;exitDx=0;exitDy=0;exitPerimeter=0;fontSize=25;startArrow=none;startFill=0;" edge="1" parent="1" source="7Nxe6CDJm95LbghUJ3Ev-49" target="7Nxe6CDJm95LbghUJ3Ev-64">
          <mxGeometry relative="1" as="geometry" />
        </mxCell>
        <mxCell id="7Nxe6CDJm95LbghUJ3Ev-49" value="TimeInterval" style="html=1;whiteSpace=wrap;fillColor=#fad9d5;shape=mxgraph.archimate3.application;appType=func;archiType=rounded;fontSize=14;strokeColor=#ae4132;" vertex="1" parent="1">
          <mxGeometry x="364" y="642" width="150" height="75" as="geometry" />
        </mxCell>
        <mxCell id="7Nxe6CDJm95LbghUJ3Ev-50" value="SongInterval" style="html=1;whiteSpace=wrap;fillColor=#fad9d5;shape=mxgraph.archimate3.application;appType=func;archiType=rounded;fontSize=14;strokeColor=#ae4132;" vertex="1" parent="1">
          <mxGeometry x="629" y="643" width="150" height="75" as="geometry" />
        </mxCell>
        <mxCell id="7Nxe6CDJm95LbghUJ3Ev-51" value="FixedTime" style="html=1;whiteSpace=wrap;fillColor=#fad9d5;shape=mxgraph.archimate3.application;appType=func;archiType=rounded;fontSize=14;strokeColor=#ae4132;" vertex="1" parent="1">
          <mxGeometry x="880" y="642.5" width="150" height="75" as="geometry" />
        </mxCell>
        <mxCell id="7Nxe6CDJm95LbghUJ3Ev-61" value="Facade" style="text;html=1;align=center;verticalAlign=middle;resizable=0;points=[];autosize=1;strokeColor=none;fontSize=25;" vertex="1" parent="1">
          <mxGeometry x="1340" y="290" width="100" height="40" as="geometry" />
        </mxCell>
        <mxCell id="7Nxe6CDJm95LbghUJ3Ev-64" value="ResourceObservable" style="html=1;whiteSpace=wrap;fillColor=#fad7ac;shape=mxgraph.archimate3.application;appType=func;archiType=rounded;fontSize=14;strokeColor=#b46504;" vertex="1" parent="1">
          <mxGeometry x="537" y="571" width="400" height="35" as="geometry" />
        </mxCell>
        <mxCell id="7Nxe6CDJm95LbghUJ3Ev-65" value="" style="endArrow=none;dashed=1;html=1;dashPattern=1 3;strokeWidth=2;" edge="1" parent="1" target="7Nxe6CDJm95LbghUJ3Ev-64">
          <mxGeometry width="50" height="50" relative="1" as="geometry">
            <mxPoint x="150" y="581" as="sourcePoint" />
            <mxPoint x="1330" y="581" as="targetPoint" />
          </mxGeometry>
        </mxCell>
      </root>
    </mxGraphModel>
  </diagram>
</mxfile>
